<svg xmlns="http://www.w3.org/2000/svg" width="20" height="14.998" viewBox="0 0 27 14.998">
  <g id="Dropdown" transform="translate(1.5 1.499)">
    <g id="Path_950" data-name="Path 950" transform="translate(24) rotate(90)" fill="#fff" stroke-linecap="round">
      <path d="M 0.267204612493515 24.75 C -0.1342853903770447 24.75 -0.5112354159355164 24.49509048461914 -0.6707853674888611 24.11568069458008 C -0.8295654058456421 23.73809051513672 -0.7488554120063782 23.32029151916504 -0.4601553976535797 23.02533149719238 L 0.3411546051502228 22.2066707611084 L 0.6875346302986145 21.8528003692627 L 2.057004690170288 20.45369148254395 L 3.426464557647705 19.05458068847656 L 6.753414630889893 15.65560054779053 L 9.613574981689453 12.73353099822998 L 9.850814819335938 12.49115085601807 L 10.33155345916748 12.00000381469727 L 10.00991439819336 11.67141056060791 L 9.879204750061035 11.53787136077881 L 7.140274524688721 8.739641189575195 L 4.906194686889648 6.457190990447998 L 3.813324689865112 5.34066104888916 L 0.9531646370887756 2.4186110496521 C 0.7999545931816101 2.262070894241333 0.6453245878219604 2.107010841369629 0.4907146096229553 1.951950907707214 C 0.1812529563903809 1.641586303710938 -0.1386533230543137 1.320748448371887 -0.4466831386089325 0.9884330034255981 L -0.4608853757381439 0.973910927772522 C -0.7488353848457336 0.6797309517860413 -0.8295553922653198 0.2619309425354004 -0.6707754135131836 -0.1156590431928635 C -0.5112254023551941 -0.4950790405273438 -0.1342853903770447 -0.7499990463256836 0.267204612493515 -0.7499990463256836 C 0.5341846346855164 -0.7499990463256836 0.7867246270179749 -0.6410190463066101 0.9783146381378174 -0.4431290328502655 L 1.549294590950012 0.1401809602975845 L 2.123124599456787 0.7264309525489807 L 3.507254600524902 2.140531063079834 L 4.862064838409424 3.524670839309692 L 6.543174743652344 5.242170810699463 L 8.189014434814453 6.923640727996826 L 10.62807464599609 9.415500640869141 L 11.04918479919434 9.845721244812012 C 11.20236492156982 10.00222110748291 11.35696506500244 10.15726089477539 11.51156425476074 10.31231117248535 C 11.82102680206299 10.62266635894775 12.14094734191895 10.94352054595947 12.44898986816406 11.27583408355713 L 12.46290493011475 11.29006099700928 C 12.84588432312012 11.68141078948975 12.84585475921631 12.31874084472656 12.4624547958374 12.7103910446167 L 11.76401424407959 13.42397117614746 L 11.31483459472656 13.88289070129395 L 8.575884819030762 16.68112182617188 L 5.248924732208252 20.08009147644043 L 3.470854520797729 21.89666175842285 L 2.388774633407593 23.00217056274414 C 2.235604524612427 23.15865135192871 2.083864688873291 23.31658172607422 1.932124614715576 23.47451019287109 C 1.628280520439148 23.79072952270508 1.314192056655884 24.11761665344238 0.9888375997543335 24.43240737915039 L 0.979684591293335 24.4417610168457 L 0.9752045869827271 24.44633102416992 C 0.7867246270179749 24.64102172851562 0.5341846346855164 24.75 0.267204612493515 24.75 Z" stroke="none"/>
      <path d="M 0.2672095000743866 24.00000190734863 C 0.3255690932273865 24.00000190734863 0.3859038650989532 23.97678375244141 0.4394746124744415 23.92145156860352 C 0.4472146034240723 23.91355133056641 0.4523746073246002 23.90829086303711 0.4601046144962311 23.90038108825684 C 0.93723464012146 23.43927001953125 1.388564586639404 22.95182037353516 1.852794647216797 22.4775505065918 C 2.807034492492676 21.50265121459961 3.758694648742676 20.53037071228027 4.712944507598877 19.55547142028809 C 5.821924686431885 18.42248153686523 6.930914402008057 17.28949165344238 8.039904594421387 16.15650177001953 C 8.952874183654785 15.2237606048584 9.8658447265625 14.2910213470459 10.77884483337402 13.35828113555908 C 11.16053485870361 12.96831130981445 11.54481506347656 12.57573127746582 11.92650413513184 12.18574142456055 C 12.02449417114258 12.0856409072876 12.02449417114258 11.91438102722168 11.92650413513184 11.81425094604492 C 11.91877460479736 11.80634117126465 11.91361427307129 11.80107116699219 11.90587425231934 11.79316139221191 C 11.45453453063965 11.3057107925415 10.97741508483887 10.84461116790771 10.51320457458496 10.37034130096436 C 9.558954238891602 9.395441055297852 8.607284545898438 8.42318058013916 7.653034687042236 7.44826078414917 C 6.544054508209229 6.315280914306641 5.435084819793701 5.182291030883789 4.326084613800049 4.049291133880615 C 3.41310453414917 3.116540908813477 2.50012469291687 2.183800935745239 1.587154626846313 1.251060962677002 C 1.205444574356079 0.861100971698761 0.8211846351623535 0.4685109555721283 0.4394746124744415 0.07855095714330673 C 0.204794704914093 -0.1638489961624146 -0.1588454097509384 0.2102909535169601 0.07584460824728012 0.4500609636306763 C 0.08357460796833038 0.4579809606075287 0.08873461186885834 0.4632409512996674 0.09647461026906967 0.4711509644985199 C 0.5477946400642395 0.9586009383201599 1.024924635887146 1.419700980186462 1.489134669303894 1.893980979919434 C 2.443384647369385 2.868870973587036 3.395054578781128 3.841130971908569 4.349304676055908 4.816040992736816 C 5.45829439163208 5.94904088973999 6.567274570465088 7.08202075958252 7.676254749298096 8.215021133422852 C 8.589234352111816 9.147761344909668 9.502214431762695 10.08050060272217 10.41518497467041 11.01325130462646 C 10.73500728607178 11.33999443054199 11.05663967132568 11.66858959197998 11.37705326080322 11.99592113494873 C 11.43083095550537 11.94063282012939 11.48552131652832 11.88661289215088 11.54223442077637 11.8353214263916 C 11.54996490478516 11.8300609588623 11.55512428283691 11.8221607208252 11.56286430358887 11.81425094604492 C 11.56286430358887 11.93810081481934 11.56286430358887 12.06191062927246 11.56286430358887 12.18574142456055 C 11.50098609924316 12.12252807617188 11.43904495239258 12.059250831604 11.37705326080322 11.99592113494873 C 11.28164482116699 12.09400844573975 11.18913459777832 12.19606494903564 11.09347438812256 12.29379081726074 C 10.77884483337402 12.61525058746338 10.46419429779053 12.93670082092285 10.14955425262451 13.25815105438232 C 9.195314407348633 14.23305130004883 8.243644714355469 15.20532131195068 7.289394378662109 16.18022155761719 C 6.180404663085938 17.3132209777832 5.07142448425293 18.44621086120605 3.962444543838501 19.57920074462891 C 3.049474716186523 20.51194000244141 2.136484622955322 21.44468116760254 1.223514556884766 22.37742042541504 C 0.8418046236038208 22.76739120483398 0.4575245976448059 23.15997123718262 0.07583460956811905 23.54994010925293 C -0.1052746400237083 23.73497772216797 0.06991033256053925 24.00000190734863 0.2672095000743866 24.00000190734863 M 0.267204612493515 25.5 C -0.4432253837585449 25.5 -1.082785367965698 25.07074165344238 -1.36214542388916 24.40640068054199 C -1.635845422744751 23.75554084777832 -1.492175340652466 23.00752067565918 -0.9961453676223755 22.5007209777832 L 9.282071113586426 12.00001335144043 L 0.4171846210956573 2.943230867385864 C 0.2655846178531647 2.788341045379639 0.112584613263607 2.634930849075317 -0.04038538783788681 2.481500864028931 C -0.3523105382919312 2.168669700622559 -0.6746717691421509 1.845374584197998 -0.9897683262825012 1.50579559803009 L -0.9976153969764709 1.49777090549469 C -1.492155432701111 0.9925209283828735 -1.635825395584106 0.2445009499788284 -1.362135410308838 -0.4063790440559387 C -1.082775354385376 -1.07072901725769 -0.4432253837585449 -1.499999046325684 0.267204612493515 -1.499999046325684 C 0.7376356720924377 -1.499999046325684 1.180240750312805 -1.31110954284668 1.514020919799805 -0.9680463075637817 L 11.58515453338623 9.321090698242188 C 11.73672485351562 9.475951194763184 11.88970470428467 9.629341125488281 12.04266452789307 9.782751083374023 C 12.35461902618408 10.09561157226562 12.67704010009766 10.41896820068359 12.99216556549072 10.75857067108154 L 12.99930477142334 10.76587104797363 C 13.66502475738525 11.44613075256348 13.66495418548584 12.5541410446167 12.99840450286865 13.23504066467285 L 2.924754619598389 23.52679061889648 C 2.773194551467896 23.68162155151367 2.623074531555176 23.837890625 2.472934722900391 23.99415016174316 C 2.166711807250977 24.31285285949707 1.850237369537354 24.64221382141113 1.517802596092224 24.96418952941895 L 1.512901902198792 24.96918869018555 C 1.179259777069092 25.31154441833496 0.7371172308921814 25.5 0.267204612493515 25.5 Z" stroke="none" fill="#fff"/>
    </g>
  </g>
</svg>
